<svg xmlns="http://www.w3.org/2000/svg" xmlns:svg="http://www.w3.org/2000/svg" xmlns:xlink="http://www.w3.org/1999/xlink" id="svg2" width="192" height="192" version="1.1"><defs id="defs4"><linearGradient id="linearGradient4259"><stop style="stop-color:#212121;stop-opacity:1" id="stop4261" offset="0"/><stop style="stop-color:#bf360c;stop-opacity:.17647059" id="stop4263" offset="1"/></linearGradient><linearGradient id="linearGradient4249"><stop style="stop-color:#212121;stop-opacity:1" id="stop4251" offset="0"/><stop style="stop-color:#212121;stop-opacity:0" id="stop4253" offset="1"/></linearGradient><linearGradient id="linearGradient3837"><stop style="stop-color:#fff;stop-opacity:.09803922" id="stop3839" offset="0"/><stop style="stop-color:#fff;stop-opacity:0" id="stop3841" offset="1"/></linearGradient><linearGradient id="linearGradient3825"><stop style="stop-color:#fff;stop-opacity:1" id="stop3827" offset="0"/><stop style="stop-color:#fff;stop-opacity:0" id="stop3829" offset="1"/></linearGradient><linearGradient id="linearGradient3843" x1="20" x2="172" y1="20" y2="172" gradientUnits="userSpaceOnUse" xlink:href="#linearGradient3837"/><radialGradient id="radialGradient4255" cx="74" cy="100" r="6" fx="74" fy="100" gradientTransform="matrix(1,0,0,2.6666672,0,-166.66671)" gradientUnits="userSpaceOnUse" xlink:href="#linearGradient4249"/><radialGradient id="radialGradient4265" cx="74" cy="100" r="6" fx="74" fy="100" gradientTransform="matrix(1,0,0,1.6666667,0,-66.666667)" gradientUnits="userSpaceOnUse" xlink:href="#linearGradient4259"/><filter id="filter4346"><feGaussianBlur id="feGaussianBlur4348" stdDeviation="2.28"/></filter><filter id="filter4441" width="1.823" height="1.64" x="-.411" y="-.32"><feGaussianBlur id="feGaussianBlur4443" stdDeviation="2.4"/></filter><filter id="filter4453" width="1.44" height="1.069" x="-.22" y="-.035"><feGaussianBlur id="feGaussianBlur4455" stdDeviation="2.2"/></filter><filter id="filter4461" width="1.082" height="1.584" x="-.041" y="-.292"><feGaussianBlur id="feGaussianBlur4463" stdDeviation="2.19"/></filter><filter id="filter4469" width="1.456" height="1.085" x="-.228" y="-.043"><feGaussianBlur id="feGaussianBlur4471" stdDeviation="2.28"/></filter><filter id="filter4481" width="1.308" height="1.231" x="-.154" y="-.116"><feGaussianBlur id="feGaussianBlur4483" stdDeviation="2.31"/></filter><filter id="filter4485" width="1.308" height="1.231" x="-.154" y="-.116"><feGaussianBlur id="feGaussianBlur4487" stdDeviation="2.31"/></filter><filter id="filter4489" width="1.823" height="1.64" x="-.411" y="-.32"><feGaussianBlur id="feGaussianBlur4491" stdDeviation="2.4"/></filter></defs><metadata id="metadata7"/><g id="layer12" style="display:inline"><rect style="fill:#3e2723;fill-opacity:.17647059;stroke:none;filter:url(#filter4346)" id="rect4300" width="152" height="152" x="20" y="26"/></g><g id="layer1" style="display:inline"><rect style="fill:#795548;fill-opacity:1;fill-rule:evenodd;stroke:none" id="rect2987" width="152" height="152" x="20" y="20"/></g><g id="layer10" style="display:inline"><rect style="fill:#fff;fill-opacity:.17647059;stroke:none;display:inline" id="rect3797" width="104" height="16" x="44" y="20"/></g><g id="layer3" style="display:inline"><rect style="fill:#9e9e9e;fill-opacity:1;stroke:none" id="rect3761" width="152" height="8" x="20" y="92"/></g><g id="layer9" style="display:inline"><rect style="fill:#212121;fill-opacity:.17647059;stroke:none;display:inline" id="rect4179-7" width="152" height="4" x="20" y="96"/><rect style="fill:#fff;fill-opacity:.17647059;stroke:none;display:inline" id="rect4175" width="152" height="4" x="20" y="92"/></g><g id="layer11" style="display:inline"><rect style="fill:#bf360c;fill-opacity:0;stroke:none" id="rect4269" width="12" height="20" x="68" y="90"/><rect style="fill:#2d2d2d;fill-opacity:1;stroke:none" id="rect4279" width="12" height="20" x="68" y="92"/><rect style="fill:#2d2d2d;fill-opacity:1;stroke:none" id="rect4279-6" width="12" height="20" x="112" y="92"/></g><g id="layer13" style="display:inline"><rect style="fill:#ff5722;fill-opacity:.17647059;stroke:none;filter:url(#filter4481)" id="rect4353" width="36" height="48" x="56" y="80"/><rect style="fill:#ff5722;fill-opacity:.17647059;stroke:none;filter:url(#filter4485)" id="rect4353-2" width="36" height="48" x="100" y="80"/><rect style="fill:#ff5722;fill-opacity:.17647059;stroke:none;filter:url(#filter4453)" id="rect4383" width="24" height="152" x="20" y="26"/><rect style="fill:#ff5722;fill-opacity:.17647059;stroke:none;filter:url(#filter4461)" id="rect4389" width="128" height="18" x="44" y="160"/><rect style="fill:#ff5722;fill-opacity:.17647059;stroke:none;filter:url(#filter4469)" id="rect4395" width="24" height="128" x="148" y="26"/><rect style="fill:#ff5722;fill-opacity:.17647059;stroke:none;filter:url(#filter4441)" id="rect4401" width="14" height="18" x="134" y="50"/><rect style="fill:#ff5722;fill-opacity:.17647059;stroke:none;filter:url(#filter4489)" id="rect4407" width="14" height="18" x="172" y="50"/></g><g style="display:inline" id="g3981"><path id="path3983" d="m 20,20 0,152 152,0 0,-16 -128,0 0,-136 z" style="fill:#ffeb3b;fill-opacity:1;stroke:none"/><path id="path3985" d="m 172,20 -24,0 0,24 -12,0 0,20 12,0 0,84 24,0 0,-84 12,0 0,-20 -12,0 z" style="fill:#ffeb3b;fill-opacity:1;stroke:none"/><path style="fill:#ffeb3b;fill-opacity:1;stroke:none;display:inline" id="path3777-8-2" d="m 100,76 0,48 36,0 0,-48 z m 12,16 12,0 0,20 -12,0 z"/><path style="fill:#ffeb3b;fill-opacity:1;stroke:none;display:inline" id="path3777-8-2-4" d="m 56,76 0,48 36,0 0,-48 z m 12,16 12,0 0,20 -12,0 z"/></g><g id="layer4" style="display:inline"><rect style="fill:#bf360c;fill-opacity:.17647059;stroke:none" id="rect3810" width="152" height="4" x="20" y="168"/><rect style="fill:#bf360c;fill-opacity:.17647059;stroke:none" id="rect3812" width="24" height="4" x="148" y="144"/><rect style="fill:#bf360c;fill-opacity:.17647059;stroke:none" id="rect3814" width="36" height="4" x="100" y="120"/><rect style="fill:#bf360c;fill-opacity:.17647059;stroke:none" id="rect3816" width="36" height="4" x="56" y="120"/><rect style="fill:#bf360c;fill-opacity:.17647059;stroke:none;display:inline" id="rect3814-1" width="12" height="4" x="112" y="88"/><rect style="fill:#bf360c;fill-opacity:.17647059;stroke:none;display:inline" id="rect3814-1-7" width="12" height="4" x="68" y="88"/><rect style="fill:#bf360c;fill-opacity:.17647059;stroke:none;display:inline" id="rect3814-1-1" width="12" height="4" x="136" y="60"/><rect style="fill:#bf360c;fill-opacity:.17647059;stroke:none;display:inline" id="rect3814-1-1-1" width="12" height="4" x="172" y="60"/><rect style="fill:#fff;fill-opacity:.17647059;stroke:none;display:inline" id="rect3804" width="36" height="4" x="100" y="76"/><rect style="fill:#fff;fill-opacity:.17647059;stroke:none;display:inline" id="rect3806" width="36" height="4" x="56" y="76"/><rect style="fill:#fff;fill-opacity:.17647059;stroke:none;display:inline" id="rect3808" width="128" height="4" x="44" y="156"/><rect style="fill:#fff;fill-opacity:.17647059;stroke:none;display:inline" id="rect3818" width="24" height="4" x="20" y="20"/><rect style="fill:#fff;fill-opacity:.17647059;stroke:none;display:inline" id="rect3820" width="24" height="4" x="148" y="20"/><rect style="fill:#fff;fill-opacity:.17647059;stroke:none;display:inline" id="rect3804-5" width="12" height="4" x="112" y="112"/><rect style="fill:#fff;fill-opacity:.17647059;stroke:none;display:inline" id="rect3804-5-5" width="12" height="4" x="68" y="112"/><rect style="fill:#fff;fill-opacity:.17647059;stroke:none;display:inline" id="rect3820-5" width="12" height="4" x="172" y="44"/><rect style="fill:#fff;fill-opacity:.17647059;stroke:none;display:inline" id="rect3820-5-2" width="12" height="4" x="136" y="44"/></g><g id="layer6" style="display:inline"><rect style="fill:url(#linearGradient3843);fill-opacity:1;stroke:none" id="rect3835" width="152" height="152" x="20" y="20"/></g></svg>